<svg width="32" height="26" viewBox="0 0 32 26" fill="none" xmlns="http://www.w3.org/2000/svg">
<path d="M0.440074 24.7132L3.27109 14.2256H15.2385C15.5603 14.2256 15.882 13.9039 15.882 13.5822V12.2953C15.882 11.9736 15.5603 11.6519 15.2385 11.6519H3.27109L0.504415 1.35733C0.440074 1.22865 0.375732 1.03562 0.375732 0.842599C0.375732 0.392211 0.826121 -0.0581772 1.34085 0.00616394C1.46953 0.00616394 1.53387 0.0705051 1.66256 0.0705051L30.6161 11.9736C31.0021 12.1023 31.2595 12.4884 31.2595 12.8744C31.2595 13.2604 31.0021 13.5822 30.6804 13.7108L1.66256 25.9357C1.53387 26 1.40519 26 1.27651 26C0.76178 25.9357 0.375732 25.5496 0.375732 25.0349C0.375732 24.9062 0.375732 24.8419 0.440074 24.7132Z" fill="#EBEBEB"/>
</svg>
