<svg width="36" height="36" viewBox="0 0 36 36" fill="none" xmlns="http://www.w3.org/2000/svg">
<path d="M22.878 17.3676L35.561 4.62162C36.1463 4.03784 36.1463 3.16216 35.561 2.57838L33.6098 0.535136C33.0244 -0.0486483 32.1463 -0.0486483 31.561 0.535136L18.7805 13.2811C18.3902 13.6703 17.8049 13.6703 17.4146 13.2811L4.63415 0.437838C4.04878 -0.145946 3.17073 -0.145946 2.58537 0.437838L0.536586 2.48108C-0.0487801 3.06487 -0.0487801 3.94054 0.536586 4.52432L13.3171 17.2703C13.7073 17.6595 13.7073 18.2432 13.3171 18.6324L0.439024 31.4757C-0.146341 32.0595 -0.146341 32.9351 0.439024 33.5189L2.48781 35.5622C3.07317 36.1459 3.95122 36.1459 4.53658 35.5622L17.3171 22.8162C17.7073 22.427 18.2927 22.427 18.6829 22.8162L31.4634 35.5622C32.0488 36.1459 32.9268 36.1459 33.5122 35.5622L35.561 33.5189C36.1463 32.9351 36.1463 32.0595 35.561 31.4757L22.878 18.7297C22.4878 18.3405 22.4878 17.7568 22.878 17.3676V17.3676Z" fill="white"/>
</svg>
