<svg width="200" height="200" viewBox="0 0 200 200" fill="none" xmlns="http://www.w3.org/2000/svg">
<rect width="200" height="200" rx="100" fill="#787F99"/>
<path d="M176 177.853V184.9C176 193.205 169.205 200 160.9 200H40.1C31.795 200 25 193.205 25 184.9V177.853C25 159.482 46.3917 148.408 66.525 139.6C67.28 139.348 67.7833 139.097 68.5383 138.593C70.0483 137.838 71.81 137.838 73.32 138.845C81.3733 144.13 90.685 147.15 100.5 147.15C110.315 147.15 119.627 144.13 127.68 139.097C129.19 138.09 130.952 138.09 132.462 138.845C133.217 139.097 133.72 139.348 134.475 139.852C154.608 148.408 176 159.482 176 177.853V177.853Z" fill="#B1B1B1"/>
<path d="M100.5 132.05C121.21 132.05 137.998 113.459 137.998 90.525C137.998 67.5914 121.21 49 100.5 49C79.7902 49 63.0016 67.5914 63.0016 90.525C63.0016 113.459 79.7902 132.05 100.5 132.05Z" fill="#B1B1B1"/>
</svg>
