<svg width="28" height="20" viewBox="0 0 28 20" fill="none" xmlns="http://www.w3.org/2000/svg">
<path d="M3.23077 0.307739C1.44738 0.307739 0 1.75512 0 3.53851V16.4616C0 18.245 1.44738 19.6924 3.23077 19.6924H24.7692C26.5526 19.6924 28 18.245 28 16.4616V3.53851C28 1.75512 26.5526 0.307739 24.7692 0.307739H3.23077ZM3.23077 2.46159H24.7692C25.3626 2.46159 25.8462 2.94512 25.8462 3.53851V4.07697L14 10.4717L2.15385 4.07697V3.53851C2.15385 2.94512 2.63738 2.46159 3.23077 2.46159ZM2.15385 4.37959L9.18723 9.86543L2.28846 16.9333L10.7025 10.9424L14 13.0628L17.2986 10.9424L25.7115 16.9333L18.8128 9.86543L25.8462 4.37959V16.4616C25.8402 16.6274 25.794 16.7893 25.7115 16.9333C25.5338 17.2833 25.1882 17.5385 24.7692 17.5385H3.23077C2.81185 17.5385 2.46615 17.2833 2.28846 16.9322C2.20617 16.7885 2.15998 16.627 2.15385 16.4616V4.37959Z" fill="#A7A7A7"/>
</svg>
