<svg width="22" height="14" viewBox="0 0 18 10" fill="none" xmlns="http://www.w3.org/2000/svg">
<path d="M18 8.5V9.5C18 9.63542 17.9258 9.7526 17.7773 9.85156C17.6289 9.95052 17.4531 10 17.25 10H0.75C0.546875 10 0.371094 9.95052 0.222656 9.85156C0.0742188 9.7526 0 9.63542 0 9.5V8.5C0 8.36458 0.0742188 8.2474 0.222656 8.14844C0.371094 8.04948 0.546875 8 0.75 8H17.25C17.4531 8 17.6289 8.04948 17.7773 8.14844C17.9258 8.2474 18 8.36458 18 8.5ZM18 4.5V5.5C18 5.63542 17.9258 5.7526 17.7773 5.85156C17.6289 5.95052 17.4531 6 17.25 6H0.75C0.546875 6 0.371094 5.95052 0.222656 5.85156C0.0742188 5.7526 0 5.63542 0 5.5V4.5C0 4.36458 0.0742188 4.2474 0.222656 4.14844C0.371094 4.04948 0.546875 4 0.75 4H17.25C17.4531 4 17.6289 4.04948 17.7773 4.14844C17.9258 4.2474 18 4.36458 18 4.5ZM18 0.5V1.5C18 1.63542 17.9258 1.7526 17.7773 1.85156C17.6289 1.95052 17.4531 2 17.25 2H0.75C0.546875 2 0.371094 1.95052 0.222656 1.85156C0.0742188 1.7526 0 1.63542 0 1.5V0.5C0 0.364583 0.0742188 0.247396 0.222656 0.148438C0.371094 0.0494792 0.546875 0 0.75 0H17.25C17.4531 0 17.6289 0.0494792 17.7773 0.148438C17.9258 0.247396 18 0.364583 18 0.5Z" fill="#646464"/>
</svg>
